<?xml version="1.0" encoding="UTF-8" standalone="no"?>
<!DOCTYPE svg PUBLIC "-//W3C//DTD SVG 1.1//EN"
 "http://www.w3.org/Graphics/SVG/1.1/DTD/svg11.dtd">
<!-- Generated by graphviz version 2.38.0 (20140413.2041)
 -->
<!-- Title: G Pages: 1 -->
<svg width="852pt" height="474pt"
 viewBox="0.00 0.00 852.25 474.00" xmlns="http://www.w3.org/2000/svg" xmlns:xlink="http://www.w3.org/1999/xlink">
<g id="graph0" class="graph" transform="scale(1 1) rotate(0) translate(4 470)">
<title>G</title>
<polygon fill="white" stroke="none" points="-4,4 -4,-470 848.25,-470 848.25,4 -4,4"/>
<g id="clust1" class="cluster"><title>cluster_Global</title>
<path fill="none" stroke="gray" d="M612.25,-8C612.25,-8 824.25,-8 824.25,-8 830.25,-8 836.25,-14 836.25,-20 836.25,-20 836.25,-446 836.25,-446 836.25,-452 830.25,-458 824.25,-458 824.25,-458 612.25,-458 612.25,-458 606.25,-458 600.25,-452 600.25,-446 600.25,-446 600.25,-20 600.25,-20 600.25,-14 606.25,-8 612.25,-8"/>
<text text-anchor="middle" x="718.25" y="-445.2" font-family="Times,serif" font-size="11.00" fill="gray">Global</text>
</g>
<g id="clust2" class="cluster"><title>cluster_\initiatice</title>
<path fill="none" stroke="gray" d="M620.25,-16C620.25,-16 816.25,-16 816.25,-16 822.25,-16 828.25,-22 828.25,-28 828.25,-28 828.25,-418 828.25,-418 828.25,-424 822.25,-430 816.25,-430 816.25,-430 620.25,-430 620.25,-430 614.25,-430 608.25,-424 608.25,-418 608.25,-418 608.25,-28 608.25,-28 608.25,-22 614.25,-16 620.25,-16"/>
<text text-anchor="middle" x="718.25" y="-417.2" font-family="Times,serif" font-size="11.00" fill="gray">initiatice</text>
</g>
<g id="clust3" class="cluster"><title>cluster_\initiatice\ApiBundle</title>
<path fill="none" stroke="gray" d="M628.25,-24C628.25,-24 808.25,-24 808.25,-24 814.25,-24 820.25,-30 820.25,-36 820.25,-36 820.25,-390 820.25,-390 820.25,-396 814.25,-402 808.25,-402 808.25,-402 628.25,-402 628.25,-402 622.25,-402 616.25,-396 616.25,-390 616.25,-390 616.25,-36 616.25,-36 616.25,-30 622.25,-24 628.25,-24"/>
<text text-anchor="middle" x="718.25" y="-389.2" font-family="Times,serif" font-size="11.00" fill="gray">ApiBundle</text>
</g>
<g id="clust4" class="cluster"><title>cluster_\initiatice\ApiBundle\Controller</title>
<path fill="none" stroke="gray" d="M636.25,-32C636.25,-32 800.25,-32 800.25,-32 806.25,-32 812.25,-38 812.25,-44 812.25,-44 812.25,-362 812.25,-362 812.25,-368 806.25,-374 800.25,-374 800.25,-374 636.25,-374 636.25,-374 630.25,-374 624.25,-368 624.25,-362 624.25,-362 624.25,-44 624.25,-44 624.25,-38 630.25,-32 636.25,-32"/>
<text text-anchor="middle" x="718.25" y="-361.2" font-family="Times,serif" font-size="11.00" fill="gray">Controller</text>
</g>
<!-- \\initiatice\\ApiBundle\\Controller\\ProfileController -->
<g id="node1" class="node"><title>\\initiatice\\ApiBundle\\Controller\\ProfileController</title>
<polygon fill="none" stroke="black" points="783.75,-346 652.75,-346 652.75,-310 783.75,-310 783.75,-346"/>
<text text-anchor="middle" x="718.25" y="-325.2" font-family="Courier,monospace" font-size="11.00">ProfileController</text>
</g>
<!-- \\Symfony\\Bundle\\FrameworkBundle\\Controller\\Controller -->
<g id="node7" class="node"><title>\\Symfony\\Bundle\\FrameworkBundle\\Controller\\Controller</title>
<ellipse fill="none" stroke="black" cx="280.125" cy="-193" rx="280.25" ry="18"/>
<text text-anchor="middle" x="280.125" y="-189.3" font-family="Times,serif" font-size="14.00" fill="gray">\Symfony\Bundle\FrameworkBundle\Controller\Controller</text>
</g>
<!-- \\initiatice\\ApiBundle\\Controller\\ProfileController&#45;&gt;\\Symfony\\Bundle\\FrameworkBundle\\Controller\\Controller -->
<g id="edge1" class="edge"><title>\\initiatice\\ApiBundle\\Controller\\ProfileController&#45;&gt;\\Symfony\\Bundle\\FrameworkBundle\\Controller\\Controller</title>
<path fill="none" stroke="black" d="M652.587,-314.288C635.483,-310.332 617.096,-305.781 600.25,-301 507.393,-274.644 401.638,-237.387 338.203,-214.237"/>
<polygon fill="none" stroke="black" points="339.369,-210.937 328.775,-210.786 336.963,-217.51 339.369,-210.937"/>
</g>
<!-- \\initiatice\\ApiBundle\\Controller\\EventController -->
<g id="node2" class="node"><title>\\initiatice\\ApiBundle\\Controller\\EventController</title>
<polygon fill="none" stroke="black" points="777.25,-292 659.25,-292 659.25,-256 777.25,-256 777.25,-292"/>
<text text-anchor="middle" x="718.25" y="-271.2" font-family="Courier,monospace" font-size="11.00">EventController</text>
</g>
<!-- \\initiatice\\ApiBundle\\Controller\\EventController&#45;&gt;\\Symfony\\Bundle\\FrameworkBundle\\Controller\\Controller -->
<g id="edge2" class="edge"><title>\\initiatice\\ApiBundle\\Controller\\EventController&#45;&gt;\\Symfony\\Bundle\\FrameworkBundle\\Controller\\Controller</title>
<path fill="none" stroke="black" d="M658.885,-263.16C588.444,-250.077 468.786,-227.854 383.006,-211.922"/>
<polygon fill="none" stroke="black" points="383.453,-208.445 372.982,-210.06 382.175,-215.327 383.453,-208.445"/>
</g>
<!-- \\initiatice\\ApiBundle\\Controller\\UserController -->
<g id="node3" class="node"><title>\\initiatice\\ApiBundle\\Controller\\UserController</title>
<polygon fill="none" stroke="black" points="773.75,-238 662.75,-238 662.75,-202 773.75,-202 773.75,-238"/>
<text text-anchor="middle" x="718.25" y="-217.2" font-family="Courier,monospace" font-size="11.00">UserController</text>
</g>
<!-- \\initiatice\\ApiBundle\\Controller\\UserController&#45;&gt;\\Symfony\\Bundle\\FrameworkBundle\\Controller\\Controller -->
<g id="edge3" class="edge"><title>\\initiatice\\ApiBundle\\Controller\\UserController&#45;&gt;\\Symfony\\Bundle\\FrameworkBundle\\Controller\\Controller</title>
<path fill="none" stroke="black" d="M662.456,-216.608C619.024,-213.919 555.373,-209.978 492.469,-206.084"/>
<polygon fill="none" stroke="black" points="492.58,-202.584 482.383,-205.46 492.147,-209.571 492.58,-202.584"/>
</g>
<!-- \\initiatice\\ApiBundle\\Controller\\ForumQuestionController -->
<g id="node4" class="node"><title>\\initiatice\\ApiBundle\\Controller\\ForumQuestionController</title>
<polygon fill="none" stroke="black" points="804.25,-184 632.25,-184 632.25,-148 804.25,-148 804.25,-184"/>
<text text-anchor="middle" x="718.25" y="-163.2" font-family="Courier,monospace" font-size="11.00">ForumQuestionController</text>
</g>
<!-- \\initiatice\\ApiBundle\\Controller\\ForumQuestionController&#45;&gt;\\Symfony\\Bundle\\FrameworkBundle\\Controller\\Controller -->
<g id="edge4" class="edge"><title>\\initiatice\\ApiBundle\\Controller\\ForumQuestionController&#45;&gt;\\Symfony\\Bundle\\FrameworkBundle\\Controller\\Controller</title>
<path fill="none" stroke="black" d="M632.126,-171.27C592.005,-173.754 542.175,-176.839 492.783,-179.897"/>
<polygon fill="none" stroke="black" points="492.349,-176.417 482.584,-180.528 492.781,-183.403 492.349,-176.417"/>
</g>
<!-- \\initiatice\\ApiBundle\\Controller\\ForumCommentController -->
<g id="node5" class="node"><title>\\initiatice\\ApiBundle\\Controller\\ForumCommentController</title>
<polygon fill="none" stroke="black" points="800.75,-130 635.75,-130 635.75,-94 800.75,-94 800.75,-130"/>
<text text-anchor="middle" x="718.25" y="-109.2" font-family="Courier,monospace" font-size="11.00">ForumCommentController</text>
</g>
<!-- \\initiatice\\ApiBundle\\Controller\\ForumCommentController&#45;&gt;\\Symfony\\Bundle\\FrameworkBundle\\Controller\\Controller -->
<g id="edge5" class="edge"><title>\\initiatice\\ApiBundle\\Controller\\ForumCommentController&#45;&gt;\\Symfony\\Bundle\\FrameworkBundle\\Controller\\Controller</title>
<path fill="none" stroke="black" d="M635.73,-127.14C564.237,-140.419 459.979,-159.782 383.003,-174.079"/>
<polygon fill="none" stroke="black" points="381.998,-170.705 372.806,-175.972 383.277,-177.588 381.998,-170.705"/>
</g>
<!-- \\initiatice\\ApiBundle\\Controller\\NewsController -->
<g id="node6" class="node"><title>\\initiatice\\ApiBundle\\Controller\\NewsController</title>
<polygon fill="none" stroke="black" points="773.75,-76 662.75,-76 662.75,-40 773.75,-40 773.75,-76"/>
<text text-anchor="middle" x="718.25" y="-55.2" font-family="Courier,monospace" font-size="11.00">NewsController</text>
</g>
<!-- \\initiatice\\ApiBundle\\Controller\\NewsController&#45;&gt;\\Symfony\\Bundle\\FrameworkBundle\\Controller\\Controller -->
<g id="edge6" class="edge"><title>\\initiatice\\ApiBundle\\Controller\\NewsController&#45;&gt;\\Symfony\\Bundle\\FrameworkBundle\\Controller\\Controller</title>
<path fill="none" stroke="black" d="M662.496,-69.4516C642.767,-73.8892 620.405,-79.2794 600.25,-85 507.393,-111.356 401.638,-148.613 338.203,-171.763"/>
<polygon fill="none" stroke="black" points="336.963,-168.49 328.775,-175.214 339.369,-175.063 336.963,-168.49"/>
</g>
</g>
</svg>
